<?xml version="1.0" encoding="utf-8"?>
<!-- Generator: Adobe Illustrator 27.5.0, SVG Export Plug-In . SVG Version: 6.00 Build 0)  -->
<svg version="1.1" id="Layer_1" xmlns="http://www.w3.org/2000/svg" xmlns:xlink="http://www.w3.org/1999/xlink" x="0px" y="0px"
	 viewBox="0 0 7000 4000" style="enable-background:new 0 0 7000 4000;" xml:space="preserve">
<g>
	<g>
		<defs>
			<rect id="SVGID_1_" width="6999.998" height="4000"/>
		</defs>
		<clipPath id="SVGID_00000075874824442095845460000006357915945530265482_">
			<use xlink:href="#SVGID_1_"  style="overflow:visible;"/>
		</clipPath>
		<g style="clip-path:url(#SVGID_00000075874824442095845460000006357915945530265482_);">
			<defs>
				<rect id="SVGID_00000130617819411163097860000000627565479898323886_" width="6999.998" height="4000"/>
			</defs>
			<clipPath id="SVGID_00000070109644275823271220000010285586860039916722_">
				<use xlink:href="#SVGID_00000130617819411163097860000000627565479898323886_"  style="overflow:visible;"/>
			</clipPath>
			
				<rect x="-0.002" style="clip-path:url(#SVGID_00000070109644275823271220000010285586860039916722_);fill-rule:evenodd;clip-rule:evenodd;fill:#000066;" width="7000" height="4000"/>
			
				<rect x="-0.002" style="opacity:0.1;clip-path:url(#SVGID_00000070109644275823271220000010285586860039916722_);fill-rule:evenodd;clip-rule:evenodd;fill:#00FFFF;" width="7000" height="4000"/>
			
				<rect x="-0.002" style="opacity:0.1;clip-path:url(#SVGID_00000070109644275823271220000010285586860039916722_);fill-rule:evenodd;clip-rule:evenodd;fill:#00FFFF;" width="7000" height="4000"/>
			
				<rect x="-0.002" style="opacity:0.1;clip-path:url(#SVGID_00000070109644275823271220000010285586860039916722_);fill-rule:evenodd;clip-rule:evenodd;fill:#00FFFF;" width="7000" height="4000"/>
			
				<path style="opacity:0.1;clip-path:url(#SVGID_00000070109644275823271220000010285586860039916722_);fill-rule:evenodd;clip-rule:evenodd;fill:#00FFFF;" d="
				M-0.002,0v4000h7000V2795.301C6217.924,1845.598,5213.729,913.711,3987.209,0H-0.002z"/>
			
				<rect x="-0.002" style="opacity:0.1;clip-path:url(#SVGID_00000070109644275823271220000010285586860039916722_);fill-rule:evenodd;clip-rule:evenodd;fill:#00FFFF;" width="7000" height="4000"/>
			
				<path style="opacity:0.1;clip-path:url(#SVGID_00000070109644275823271220000010285586860039916722_);fill-rule:evenodd;clip-rule:evenodd;fill:#00FFFF;" d="
				M-0.002,0v4000h7000V1753.406C6537.951,1169.473,5978.592,584.969,5321.664,0H-0.002z"/>
			
				<rect x="-0.002" style="opacity:0.1;clip-path:url(#SVGID_00000070109644275823271220000010285586860039916722_);fill-rule:evenodd;clip-rule:evenodd;fill:#00FFFF;" width="7000" height="4000"/>
			
				<path style="opacity:0.1;clip-path:url(#SVGID_00000070109644275823271220000010285586860039916722_);fill-rule:evenodd;clip-rule:evenodd;fill:#00FFFF;" d="
				M-0.002,0v4000h7000V2266.586C6544.473,1510.262,5964.926,754.684,5261.039,0H-0.002z"/>
			
				<path style="opacity:0.1;clip-path:url(#SVGID_00000070109644275823271220000010285586860039916722_);fill-rule:evenodd;clip-rule:evenodd;fill:#00FFFF;" d="
				M-0.002,0v4000h5007.756C4523.926,2666.414,3634.828,1332.805,2339.746,0H-0.002z"/>
			
				<rect x="-0.002" style="opacity:0.1;clip-path:url(#SVGID_00000070109644275823271220000010285586860039916722_);fill-rule:evenodd;clip-rule:evenodd;fill:#00FFFF;" width="7000" height="4000"/>
			
				<path style="opacity:0.1;clip-path:url(#SVGID_00000070109644275823271220000010285586860039916722_);fill-rule:evenodd;clip-rule:evenodd;fill:#00FFFF;" d="
				M-0.002,0v4000H4616.43C4483.242,2708.738,3911.941,1375.141,2900.873,0H-0.002z"/>
			
				<path style="opacity:0.1;clip-path:url(#SVGID_00000070109644275823271220000010285586860039916722_);fill-rule:evenodd;clip-rule:evenodd;fill:#00FFFF;" d="
				M-0.002,0v4000h6012.709c296.039-1296.469,185.484-2630.059-333-4000H-0.002z"/>
			
				<path style="opacity:0.1;clip-path:url(#SVGID_00000070109644275823271220000010285586860039916722_);fill-rule:evenodd;clip-rule:evenodd;fill:#00FFFF;" d="
				M-0.002,0v4000h4200.404c-46.57-1304.574-437.756-2638.113-1175.006-4000H-0.002z"/>
			
				<path style="opacity:0.1;clip-path:url(#SVGID_00000070109644275823271220000010285586860039916722_);fill-rule:evenodd;clip-rule:evenodd;fill:#00FFFF;" d="
				M-0.002,0v4000h1431.811C1407.037,2698.789,1021.174,1365.238,273.025,0H-0.002z"/>
			
				<path style="opacity:0.1;clip-path:url(#SVGID_00000070109644275823271220000010285586860039916722_);fill-rule:evenodd;clip-rule:evenodd;fill:#00FFFF;" d="
				M-0.002,0v4000h6783.98c-261.836-1223.16-847.307-2476.84-1757.904-3760.563C4969.668,159.906,4911.41,80.031,4852.365,0H-0.002z
				"/>
			
				<path style="opacity:0.03;clip-path:url(#SVGID_00000070109644275823271220000010285586860039916722_);fill-rule:evenodd;clip-rule:evenodd;fill:#0000FF;" d="
				M6999.998,4000V0H495.723c411.396,1374.445,1149.213,2708.215,2213.604,4000H6999.998z"/>
			
				<path style="opacity:0.03;clip-path:url(#SVGID_00000070109644275823271220000010285586860039916722_);fill-rule:evenodd;clip-rule:evenodd;fill:#0000FF;" d="
				M6999.998,4000V0H183.316c164.32,1369.039,593.85,2702.719,1288.469,4000H6999.998z"/>
			
				<path style="opacity:0.03;clip-path:url(#SVGID_00000070109644275823271220000010285586860039916722_);fill-rule:evenodd;clip-rule:evenodd;fill:#0000FF;" d="
				M6999.998,4000V0H759.088c460.52,1369.289,1164.91,2702.957,2113.199,4000H6999.998z"/>
			
				<path style="opacity:0.03;clip-path:url(#SVGID_00000070109644275823271220000010285586860039916722_);fill-rule:evenodd;clip-rule:evenodd;fill:#0000FF;" d="
				M6999.998,4000V0h-4561.4c490.242,1369.289,1240.094,2702.957,2249.594,4000H6999.998z"/>
			
				<path style="opacity:0.03;clip-path:url(#SVGID_00000070109644275823271220000010285586860039916722_);fill-rule:evenodd;clip-rule:evenodd;fill:#0000FF;" d="
				M6999.998,4000V0H0v2138.266C385.301,2766.93,832.201,3387.563,1341.084,4000H6999.998z"/>
			
				<path style="opacity:0.03;clip-path:url(#SVGID_00000070109644275823271220000010285586860039916722_);fill-rule:evenodd;clip-rule:evenodd;fill:#0000FF;" d="
				M6999.998,4000V0H2188.436c280.891,1330.148,856.021,2663.844,1726.029,4000H6999.998z"/>
			
				<path style="opacity:0.03;clip-path:url(#SVGID_00000070109644275823271220000010285586860039916722_);fill-rule:evenodd;clip-rule:evenodd;fill:#0000FF;" d="
				M6999.998,4000V0H1612.754c24.346,1332.766,303.84,2666.41,838.73,4000H6999.998z"/>
			
				<path style="opacity:0.03;clip-path:url(#SVGID_00000070109644275823271220000010285586860039916722_);fill-rule:evenodd;clip-rule:evenodd;fill:#0000FF;" d="
				M6999.998,4000V0h-4537.84c272.129,1335.566,767.773,2669.176,1487.459,4000H6999.998z"/>
			
				<path style="opacity:0.03;clip-path:url(#SVGID_00000070109644275823271220000010285586860039916722_);fill-rule:evenodd;clip-rule:evenodd;fill:#0000FF;" d="
				M6999.998,4000V0H4096.471c280.527,1333.586,796.031,2667.195,1546.928,4000H6999.998z"/>
			
				<path style="opacity:0.03;clip-path:url(#SVGID_00000070109644275823271220000010285586860039916722_);fill-rule:evenodd;clip-rule:evenodd;fill:#0000FF;" d="
				M6999.998,4000V0H810.25c376.938,1331.57,1001.127,2665.18,1873.188,4000H6999.998z"/>
			
				<path style="opacity:0.03;clip-path:url(#SVGID_00000070109644275823271220000010285586860039916722_);fill-rule:evenodd;clip-rule:evenodd;fill:#0000FF;" d="
				M6999.998,4000V0H4323.363c77.223,1291.266,408.467,2624.863,994.689,4000H6999.998z"/>
			
				<path style="opacity:0.03;clip-path:url(#SVGID_00000070109644275823271220000010285586860039916722_);fill-rule:evenodd;clip-rule:evenodd;fill:#0000FF;" d="
				M6999.998,4000V0H3513.793c-171.645,1296.469-107.543,2630.059,193.074,4000H6999.998z"/>
			
				<path style="opacity:0.03;clip-path:url(#SVGID_00000070109644275823271220000010285586860039916722_);fill-rule:evenodd;clip-rule:evenodd;fill:#0000FF;" d="
				M6999.998,4000V0h-2435.42c27.002,1304.574,253.814,2638.117,681.279,4000H6999.998z"/>
			
				<path style="opacity:0.03;clip-path:url(#SVGID_00000070109644275823271220000010285586860039916722_);fill-rule:evenodd;clip-rule:evenodd;fill:#0000FF;" d="
				M6999.998,4000V0h-830.17c14.361,1301.215,238.088,2634.762,671.867,4000H6999.998z"/>
			
				<path style="opacity:0.03;clip-path:url(#SVGID_00000070109644275823271220000010285586860039916722_);fill-rule:evenodd;clip-rule:evenodd;fill:#0000FF;" d="
				M6999.998,4000V0H3066.605c151.814,1223.16,491.275,2476.836,1019.246,3760.563c32.703,79.535,66.48,159.41,100.715,239.438
				H6999.998z"/>
		</g>
	</g>
</g>
</svg>
